<svg xmlns="http://www.w3.org/2000/svg" width="1080" height="720" viewBox="0 0 1080 720" role="img" aria-label="Product feed mockup">
  <defs>
    <linearGradient id="bg" x1="0" y1="0" x2="1" y2="1">
      <stop offset="0%" stop-color="#f7f4ff"/>
      <stop offset="100%" stop-color="#ede6ff"/>
    </linearGradient>
  </defs>
  <rect width="1080" height="720" fill="url(#bg)"/>
  <rect x="120" y="60" width="840" height="600" rx="34" fill="#ffffff" stroke="#d8d0ef" stroke-width="3"/>
  <rect x="170" y="120" width="740" height="78" rx="14" fill="#f1ecff"/>
  <rect x="202" y="148" width="244" height="22" rx="10" fill="#3d1a6e"/>
  <circle cx="856" cy="159" r="22" fill="#f59e0b"/>
  <rect x="170" y="228" width="740" height="120" rx="18" fill="#f8f5ff" stroke="#e5def8"/>
  <rect x="198" y="258" width="280" height="20" rx="10" fill="#1f1636"/>
  <rect x="198" y="290" width="420" height="16" rx="8" fill="#665c86"/>
  <rect x="760" y="264" width="122" height="42" rx="12" fill="#f59e0b"/>
  <rect x="170" y="370" width="740" height="120" rx="18" fill="#f8f5ff" stroke="#e5def8"/>
  <rect x="198" y="400" width="300" height="20" rx="10" fill="#1f1636"/>
  <rect x="198" y="432" width="398" height="16" rx="8" fill="#665c86"/>
  <rect x="760" y="406" width="122" height="42" rx="12" fill="#f59e0b"/>
  <rect x="170" y="512" width="740" height="120" rx="18" fill="#f8f5ff" stroke="#e5def8"/>
  <rect x="198" y="542" width="234" height="20" rx="10" fill="#1f1636"/>
  <rect x="198" y="574" width="460" height="16" rx="8" fill="#665c86"/>
  <rect x="760" y="548" width="122" height="42" rx="12" fill="#f59e0b"/>
</svg>
